<?xml version="1.0" encoding="UTF-8"?>
<svg id="Layer_1" data-name="Layer 1" xmlns="http://www.w3.org/2000/svg" viewBox="0 0 279 62">
  <defs>
    <style>
      .cls-1 {
        fill: #fff;
        stroke-width: 0px;
      }
    </style>
  </defs>
  <path class="cls-1" d="M83.46,25.83l4.38-14.1h5.74l4.34,14.1,4.89-14.1h5.96l-8.61,24.52h-4.08l-5.41-17.06-5.37,17.06h-4.08l-8.61-24.52h5.96l4.89,14.1ZM111.75,11.73h5.52v24.52h-5.52V11.73ZM123.33,11.73h5.52v10.08l9.31-10.08h6.8l-9.82,10.85c.85,1.17,2.43,3.36,4.71,6.54,2.28,3.18,3.97,5.55,5.11,7.12h-6.44l-7.25-9.68-2.46,2.74v6.94h-5.52V11.73s.04,0,.04,0ZM148.38,11.73h5.52v24.52h-5.52V11.73ZM182.08,20.83l-6.66,13.41h-3.27l-6.62-13.41v15.42h-5.52V11.73h7.47l6.36,13.48,6.4-13.48h7.43v24.52h-5.52v-15.42h-.07,0ZM211.47,11.73v4.86h-12.29v5.08h11.04v4.68h-11.04v5.08h12.69v4.82h-18.17V11.73h17.77,0ZM235.6,14.94c2.35,2.16,3.53,5.11,3.53,8.91s-1.14,6.83-3.46,9.06c-2.28,2.23-5.81,3.33-10.52,3.33h-8.42V11.73h8.72c4.45,0,7.8,1.1,10.15,3.22h0ZM231.59,29.52c1.36-1.28,2.02-3.1,2.02-5.52s-.66-4.27-2.02-5.55c-1.36-1.32-3.42-1.94-6.22-1.94h-3.09v14.91h3.49c2.5,0,4.45-.62,5.81-1.9ZM243.91,11.73h5.52v24.51h-5.52s0-24.52,0-24.51ZM273.08,36.24l-2.28-5.3h-10.34l-2.28,5.3h-5.85l10.67-24.51h5.33l10.67,24.51h-5.92ZM265.61,19.03l-3.09,7.12h6.18l-3.09-7.12ZM82.65,47.39v2.96h4.78v1.68h-4.78v4.42h-1.84v-10.74h7.21v1.68h-5.37ZM108.47,54.91c-1.1,1.06-2.43,1.57-4.05,1.57s-2.94-.51-4.05-1.57c-1.1-1.06-1.65-2.38-1.65-3.95s.55-2.89,1.65-3.94c1.1-1.06,2.43-1.57,4.05-1.57s2.94.51,4.05,1.57c1.1,1.06,1.66,2.38,1.66,3.95s-.55,2.89-1.66,3.95ZM107.15,48.23c-.74-.77-1.65-1.13-2.72-1.13s-1.99.37-2.72,1.13c-.72.73-1.12,1.72-1.1,2.74,0,1.1.37,2.01,1.1,2.74.74.73,1.66,1.13,2.72,1.13s1.99-.37,2.72-1.13c.72-.73,1.12-1.72,1.1-2.74,0-1.1-.37-2.01-1.1-2.74ZM124.11,53.96c.48.58,1.18.88,2.02.88s1.51-.29,2.02-.88c.51-.58.74-1.35.74-2.34v-5.96h1.84v6.03c0,1.53-.44,2.74-1.29,3.58-.85.84-1.95,1.24-3.27,1.24s-2.43-.4-3.27-1.24-1.29-2.01-1.29-3.58v-6.03h1.84v5.96c-.07.99.18,1.75.66,2.34ZM150.92,45.67h1.84v10.74h-1.99l-6.11-7.82v7.82h-1.84v-10.74h1.84l6.29,8v-8h-.04ZM173.18,47.09c1.03.95,1.54,2.23,1.54,3.91s-.51,3-1.51,3.95c-.99.99-2.54,1.46-4.63,1.46h-3.57v-10.74h3.71c1.91,0,3.42.47,4.45,1.42h0ZM172.92,51.04c0-2.45-1.43-3.69-4.23-3.69h-1.84v7.34h2.02c1.32,0,2.32-.29,3.02-.91.66-.62,1.03-1.53,1.03-2.74h0ZM187.89,53.96l-1.07,2.45h-1.95l4.74-10.74h1.95l4.74,10.74h-1.95l-1.07-2.45h-5.41,0ZM192.56,52.28l-1.95-4.42-1.95,4.42h3.9ZM210.33,47.35v9.06h-1.84v-9.06h-3.27v-1.65h8.39v1.64h-3.27,0ZM224.86,45.67h1.84v10.74h-1.84v-10.74h0ZM247.96,54.91c-1.1,1.06-2.43,1.57-4.05,1.57s-2.94-.51-4.05-1.57c-1.1-1.06-1.65-2.38-1.65-3.95s.55-2.89,1.65-3.94c1.1-1.06,2.43-1.57,4.05-1.57s2.94.51,4.05,1.57c1.1,1.06,1.65,2.38,1.65,3.95s-.55,2.89-1.65,3.95ZM246.63,48.23c-.74-.77-1.65-1.13-2.72-1.13s-1.99.37-2.72,1.13c-.72.73-1.12,1.72-1.1,2.74,0,1.1.37,2.01,1.1,2.74.74.73,1.65,1.13,2.72,1.13s1.99-.37,2.72-1.13c.72-.73,1.12-1.72,1.1-2.74,0-1.1-.37-2.01-1.1-2.74ZM269.25,45.67h1.84v10.74h-1.99l-6.11-7.82v7.82h-1.84v-10.74h1.84l6.29,8-.04-8h0ZM33.84,49.94c9.31-1.31,16.44-9.24,16.44-18.82,0-5.85-2.65-11.03-6.8-14.54l-9.64,9.57s0,23.78,0,23.78ZM28.43,49.94v-23.78l-9.64-9.61c-4.32,3.59-6.81,8.92-6.81,14.54,0,9.61,7.14,17.54,16.44,18.85h0ZM47.78,14.58c4.45,4.42,6.88,10.3,6.88,16.51s-2.47,12.13-6.88,16.51c-4.45,4.42-10.37,6.83-16.63,6.83-6.23.01-12.21-2.45-16.63-6.83-4.41-4.38-6.91-10.27-6.91-16.51s2.47-12.13,6.88-16.51c.37-.36.77-.73,1.18-1.1l-5.37-5.33c-.4.37-.77.73-1.18,1.1-2.87,2.85-5.11,6.14-6.66,9.83C.84,22.87,0,26.96,0,31.09c0,4.17.81,8.22,2.46,12.02,1.58,3.69,3.83,6.98,6.66,9.83,2.87,2.85,6.18,5.08,9.9,6.61,3.83,1.62,7.95,2.45,12.1,2.45,4.19,0,8.28-.8,12.1-2.45,3.69-1.56,7.04-3.8,9.9-6.61,2.87-2.85,5.11-6.14,6.66-9.83,1.63-3.8,2.46-7.89,2.46-12.02,0-4.17-.81-8.22-2.46-12.02-1.58-3.69-3.83-6.98-6.66-9.83-.37-.36-.77-.73-1.18-1.1l-5.33,5.33c.4.33.77.69,1.18,1.1ZM31.12,0c5.37,0,9.71,4.31,9.71,9.65s-4.34,9.65-9.71,9.65-9.71-4.31-9.71-9.65S25.75,0,31.12,0h0Z"/>
</svg>